<?xml version="1.0" encoding="UTF-8"?>
<!DOCTYPE svg PUBLIC "-//W3C//DTD SVG 1.1//EN" "http://www.w3.org/Graphics/SVG/1.1/DTD/svg11.dtd">
<!-- Creator: CorelDRAW X6 -->
<svg xmlns="http://www.w3.org/2000/svg" xml:space="preserve" width="205.14mm" height="205.14mm" version="1.1" style="shape-rendering:geometricPrecision; text-rendering:geometricPrecision; image-rendering:optimizeQuality; fill-rule:evenodd; clip-rule:evenodd"
viewBox="0 0 20514 20514"
 xmlns:xlink="http://www.w3.org/1999/xlink">
 <defs>
  <style type="text/css">
   <![CDATA[
    .str0 {stroke:#2B2A29;stroke-width:20}
    .fil2 {fill:#CDE2EA}
    .fil1 {fill:#E7F1F7}
    .fil0 {fill:transparent}
    .fil3 {fill:#243759;fill-rule:nonzero}
   ]]>
  </style>
 </defs>
 <g id="Layer_x0020_1">
  <metadata id="CorelCorpID_0Corel-Layer"/>
  <rect class="fil0 str0" width="20514" height="20514"/>
  <circle class="fil1" cx="10257" cy="10257" r="9550"/>
  <path class="fil2" d="M7744 1893c968,0 1818,539 2802,255 985,-284 2345,-460 2424,117 27,199 1136,110 784,580 -307,410 -913,-19 -1541,494 -300,245 -1183,-249 -1439,138 -404,610 -343,1049 -588,1385 -245,336 -1558,36 -1911,331 -379,317 -909,850 -530,1082 379,232 930,544 1363,-47 379,-516 989,-425 1054,-171 158,611 -861,742 -2114,1543 -214,137 -204,822 -151,1156 151,956 -442,1449 -682,1533 -909,317 -692,-1737 -1590,-1491 -1053,287 -2365,-836 -2651,184 -151,539 -1839,1642 -1363,-73 57,-205 296,-329 379,-599 323,-1056 660,-2587 1212,-3218 479,-548 1212,-1059 2424,-1728 833,-905 1581,-1471 2121,-1471z"/>
  <path class="fil2" d="M12445 4687c160,220 2449,69 2680,263 598,501 -299,454 -412,1165 -340,2148 1568,-54 1569,-53 688,188 139,722 326,1389 99,353 1756,1005 1445,-117 -37,-134 -194,-215 -248,-391 -212,-690 -431,-1692 -792,-2105 -1878,-2146 -1722,-1759 -2608,-1322 -461,228 -3309,-678 -1961,1172z"/>
  <path class="fil2" d="M4911 10804c32,327 366,1975 -1293,336 -140,-138 -887,-156 -1431,-16 -374,96 -593,-121 -635,-213 -160,-349 664,-341 533,-689 -282,-746 -709,-1621 57,-1464 432,89 1054,164 1326,360 236,170 467,442 779,898 391,297 644,573 665,788z"/>
  <path class="fil2" d="M2207 13666c-32,-327 -366,-1975 1293,-336 140,138 887,156 1431,16 374,-96 -2,1333 60,1785 46,333 948,1424 709,1375 -432,-89 -1777,-958 -2049,-1154 -236,-170 -467,-442 -779,-898 -391,-297 -644,-573 -665,-788z"/>
  <path class="fil2" d="M13278 7783c83,165 441,1346 -356,1050 -511,-190 -1125,147 -1131,-62 -3,-109 741,-437 688,-569 -157,-391 -847,-227 -1020,-182 -208,54 -330,-67 -353,-119 -89,-194 369,-190 296,-383 -42,-110 -42,-575 -85,-727 -118,-421 -230,-578 82,-514 110,23 117,497 251,620 157,146 439,-52 521,7 131,95 24,324 198,578 218,165 856,193 909,301z"/>
  <path class="fil2" d="M9124 9873c315,-69 972,374 579,879 -70,89 -2073,3424 -2051,1395 3,-322 -42,-778 97,-1001 121,-193 343,-397 731,-685 216,-322 437,-543 644,-588z"/>
  <path class="fil3" d="M15575 7758c-18,-433 -58,-491 -187,-619 -268,-267 -711,-261 -979,7 -150,150 -215,351 -198,547 1,23 0,550 -1,943l-547 0 0 -3450c0,-1877 -1527,-3404 -3404,-3404l0 0c0,0 0,0 0,0 -1877,0 -3404,1527 -3404,3404l0 3450 -547 0c-1,-393 -2,-920 -1,-943 18,-196 -48,-397 -198,-547 -268,-268 -702,-268 -969,0 -129,128 -179,180 -197,612 0,0 -3,2023 -1,2239 1,417 2,729 2,740 0,2698 2022,4932 4630,5269l0 1357 -1896 0 -1 0c-379,0 -685,307 -685,685 0,379 307,685 685,685l1 0 5163 0 1 0c379,0 685,-307 685,-685 0,-379 -307,-685 -685,-685l-1 0 -1896 0 0 -1357c2608,-337 4630,-2570 4630,-5269 0,-11 1,-2979 1,-2979zm-3284 -2573l0 0 0 3450 -4066 0 0 -3450c0,-1121 912,-2033 2033,-2033 1121,0 2033,912 2033,2033zm-4066 5575l0 0 0 -754 4066 0 0 754c0,1121 -912,2033 -2033,2033 -1121,0 -2033,-912 -2033,-2033zm-1372 -754l0 0 0 754c0,1877 1527,3404 3404,3404 0,0 0,0 0,0l0 0c1877,0 3404,-1527 3404,-3404l0 -754 539 -1c0,0 -1,729 -1,733 0,2174 -1768,3943 -3942,3943 -2174,-1 -3951,-1768 -3951,-3942 0,-4 3,-733 3,-733l543 0z"/>
 </g>
</svg>
